<mxfile host="app.diagrams.net" agent="Mozilla/5.0 (Windows NT 10.0; Win64; x64) AppleWebKit/537.36 (KHTML, like Gecko) Chrome/130.0.0.0 YaBrowser/24.12.0.0 Safari/537.36" version="26.0.8">
  <diagram name="Страница — 1" id="695ID7bgG2WFHrSCJuuI">
    <mxGraphModel dx="1434" dy="1998" grid="1" gridSize="10" guides="1" tooltips="1" connect="1" arrows="1" fold="1" page="1" pageScale="1" pageWidth="827" pageHeight="1169" math="0" shadow="0">
      <root>
        <mxCell id="0" />
        <mxCell id="1" parent="0" />
        <mxCell id="zl0BZrbLmQ8mZboYd0fY-1" value="Views:booking/index.html" style="rounded=1;whiteSpace=wrap;html=1;" parent="1" vertex="1">
          <mxGeometry x="240" y="-30" width="140" height="40" as="geometry" />
        </mxCell>
        <mxCell id="zl0BZrbLmQ8mZboYd0fY-2" value="Views:booking/new.html" style="rounded=1;whiteSpace=wrap;html=1;" parent="1" vertex="1">
          <mxGeometry x="400" y="-30" width="140" height="40" as="geometry" />
        </mxCell>
        <mxCell id="zl0BZrbLmQ8mZboYd0fY-3" value="Controller: booking_controller" style="rounded=1;whiteSpace=wrap;html=1;" parent="1" vertex="1">
          <mxGeometry x="740" y="-30" width="150" height="40" as="geometry" />
        </mxCell>
        <mxCell id="zl0BZrbLmQ8mZboYd0fY-4" value="Model: booking" style="rounded=1;whiteSpace=wrap;html=1;" parent="1" vertex="1">
          <mxGeometry x="970" y="-30" width="150" height="40" as="geometry" />
        </mxCell>
        <mxCell id="zl0BZrbLmQ8mZboYd0fY-6" value="DB" style="strokeWidth=2;html=1;shape=mxgraph.flowchart.database;whiteSpace=wrap;" parent="1" vertex="1">
          <mxGeometry x="1220" y="-80" width="80" height="90" as="geometry" />
        </mxCell>
        <mxCell id="zl0BZrbLmQ8mZboYd0fY-7" value="User" style="shape=umlActor;verticalLabelPosition=bottom;verticalAlign=top;html=1;" parent="1" vertex="1">
          <mxGeometry x="80" y="-65" width="30" height="60" as="geometry" />
        </mxCell>
        <mxCell id="zl0BZrbLmQ8mZboYd0fY-8" value="" style="endArrow=none;dashed=1;html=1;rounded=0;entryX=0.5;entryY=1;entryDx=0;entryDy=0;" parent="1" source="j1bbp8KOwzvHQ2oXoYyj-13" target="zl0BZrbLmQ8mZboYd0fY-1" edge="1">
          <mxGeometry width="50" height="50" relative="1" as="geometry">
            <mxPoint x="310" y="470" as="sourcePoint" />
            <mxPoint x="320" y="130" as="targetPoint" />
          </mxGeometry>
        </mxCell>
        <mxCell id="zl0BZrbLmQ8mZboYd0fY-9" value="" style="endArrow=none;dashed=1;html=1;rounded=0;entryX=0.5;entryY=1;entryDx=0;entryDy=0;" parent="1" edge="1">
          <mxGeometry width="50" height="50" relative="1" as="geometry">
            <mxPoint x="465" y="470" as="sourcePoint" />
            <mxPoint x="465" y="10" as="targetPoint" />
          </mxGeometry>
        </mxCell>
        <mxCell id="zl0BZrbLmQ8mZboYd0fY-10" value="" style="endArrow=none;dashed=1;html=1;rounded=0;entryX=0.5;entryY=1;entryDx=0;entryDy=0;" parent="1" edge="1">
          <mxGeometry width="50" height="50" relative="1" as="geometry">
            <mxPoint x="800" y="100" as="sourcePoint" />
            <mxPoint x="800" y="10" as="targetPoint" />
          </mxGeometry>
        </mxCell>
        <mxCell id="zl0BZrbLmQ8mZboYd0fY-11" value="" style="endArrow=none;dashed=1;html=1;rounded=0;entryX=0.5;entryY=1;entryDx=0;entryDy=0;" parent="1" edge="1">
          <mxGeometry width="50" height="50" relative="1" as="geometry">
            <mxPoint x="1045" y="170" as="sourcePoint" />
            <mxPoint x="1044.57" y="10" as="targetPoint" />
          </mxGeometry>
        </mxCell>
        <mxCell id="zl0BZrbLmQ8mZboYd0fY-12" value="" style="endArrow=none;dashed=1;html=1;rounded=0;entryX=0.5;entryY=1;entryDx=0;entryDy=0;" parent="1" source="QBLKQdz6iIuvLNrxdn-J-20" edge="1">
          <mxGeometry width="50" height="50" relative="1" as="geometry">
            <mxPoint x="1260" y="480" as="sourcePoint" />
            <mxPoint x="1259.57" y="10" as="targetPoint" />
          </mxGeometry>
        </mxCell>
        <mxCell id="zl0BZrbLmQ8mZboYd0fY-13" value="" style="rounded=0;whiteSpace=wrap;html=1;" parent="1" vertex="1">
          <mxGeometry x="305" y="60" width="10" height="70" as="geometry" />
        </mxCell>
        <mxCell id="zl0BZrbLmQ8mZboYd0fY-14" value="" style="endArrow=none;dashed=1;html=1;rounded=0;" parent="1" edge="1">
          <mxGeometry width="50" height="50" relative="1" as="geometry">
            <mxPoint x="90" y="480" as="sourcePoint" />
            <mxPoint x="90" y="20" as="targetPoint" />
          </mxGeometry>
        </mxCell>
        <mxCell id="zl0BZrbLmQ8mZboYd0fY-15" value="" style="endArrow=classic;html=1;rounded=0;" parent="1" edge="1">
          <mxGeometry width="50" height="50" relative="1" as="geometry">
            <mxPoint x="100" y="80" as="sourcePoint" />
            <mxPoint x="300" y="80" as="targetPoint" />
          </mxGeometry>
        </mxCell>
        <mxCell id="zl0BZrbLmQ8mZboYd0fY-23" value="Нажать на Создать новой брони" style="edgeLabel;html=1;align=center;verticalAlign=middle;resizable=0;points=[];" parent="zl0BZrbLmQ8mZboYd0fY-15" vertex="1" connectable="0">
          <mxGeometry x="0.11" y="1" relative="1" as="geometry">
            <mxPoint x="-11" y="-9" as="offset" />
          </mxGeometry>
        </mxCell>
        <mxCell id="zl0BZrbLmQ8mZboYd0fY-17" value="" style="endArrow=classic;html=1;rounded=0;" parent="1" edge="1">
          <mxGeometry width="50" height="50" relative="1" as="geometry">
            <mxPoint x="320" y="120" as="sourcePoint" />
            <mxPoint x="790" y="120" as="targetPoint" />
          </mxGeometry>
        </mxCell>
        <mxCell id="zl0BZrbLmQ8mZboYd0fY-16" value="" style="rounded=0;whiteSpace=wrap;html=1;" parent="1" vertex="1">
          <mxGeometry x="800" y="110" width="10" height="60" as="geometry" />
        </mxCell>
        <mxCell id="zl0BZrbLmQ8mZboYd0fY-20" value="" style="endArrow=none;dashed=1;html=1;rounded=0;entryX=0.5;entryY=1;entryDx=0;entryDy=0;" parent="1" source="QBLKQdz6iIuvLNrxdn-J-8" edge="1">
          <mxGeometry width="50" height="50" relative="1" as="geometry">
            <mxPoint x="1045" y="480" as="sourcePoint" />
            <mxPoint x="1045" y="170" as="targetPoint" />
          </mxGeometry>
        </mxCell>
        <mxCell id="zl0BZrbLmQ8mZboYd0fY-24" value="GET /booking/new" style="edgeLabel;html=1;align=center;verticalAlign=middle;resizable=0;points=[];" parent="1" vertex="1" connectable="0">
          <mxGeometry x="510.0044827586207" y="110.00000000000023" as="geometry" />
        </mxCell>
        <mxCell id="zl0BZrbLmQ8mZboYd0fY-34" value="" style="endArrow=none;dashed=1;html=1;rounded=0;entryX=0;entryY=1;entryDx=0;entryDy=0;" parent="1" target="zl0BZrbLmQ8mZboYd0fY-16" edge="1">
          <mxGeometry width="50" height="50" relative="1" as="geometry">
            <mxPoint x="800" y="480" as="sourcePoint" />
            <mxPoint x="830" y="260" as="targetPoint" />
          </mxGeometry>
        </mxCell>
        <mxCell id="zl0BZrbLmQ8mZboYd0fY-38" value="" style="endArrow=classic;html=1;rounded=0;" parent="1" edge="1">
          <mxGeometry width="50" height="50" relative="1" as="geometry">
            <mxPoint x="780" y="440" as="sourcePoint" />
            <mxPoint x="320" y="440.69" as="targetPoint" />
          </mxGeometry>
        </mxCell>
        <mxCell id="zl0BZrbLmQ8mZboYd0fY-39" value="Рендеринг index.html" style="edgeLabel;html=1;align=center;verticalAlign=middle;resizable=0;points=[];" parent="1" vertex="1" connectable="0">
          <mxGeometry x="590.0044827586207" y="420.0000000000002" as="geometry">
            <mxPoint x="-2" y="10" as="offset" />
          </mxGeometry>
        </mxCell>
        <mxCell id="zl0BZrbLmQ8mZboYd0fY-41" value="" style="endArrow=classic;html=1;rounded=0;" parent="1" edge="1">
          <mxGeometry width="50" height="50" relative="1" as="geometry">
            <mxPoint x="290" y="450" as="sourcePoint" />
            <mxPoint x="110" y="450" as="targetPoint" />
          </mxGeometry>
        </mxCell>
        <mxCell id="zl0BZrbLmQ8mZboYd0fY-42" value="Отображение обновленного списка" style="edgeLabel;html=1;align=center;verticalAlign=middle;resizable=0;points=[];" parent="1" vertex="1" connectable="0">
          <mxGeometry x="200.00448275862072" y="420.0000000000002" as="geometry">
            <mxPoint x="-2" y="10" as="offset" />
          </mxGeometry>
        </mxCell>
        <mxCell id="QBLKQdz6iIuvLNrxdn-J-4" value="" style="endArrow=classic;html=1;rounded=0;" parent="1" edge="1">
          <mxGeometry width="50" height="50" relative="1" as="geometry">
            <mxPoint x="830" y="290" as="sourcePoint" />
            <mxPoint x="1030" y="290" as="targetPoint" />
          </mxGeometry>
        </mxCell>
        <mxCell id="QBLKQdz6iIuvLNrxdn-J-5" value="booking.new(booking_params)" style="edgeLabel;html=1;align=center;verticalAlign=middle;resizable=0;points=[];" parent="1" vertex="1" connectable="0">
          <mxGeometry x="940.0044827586207" y="270.0000000000002" as="geometry">
            <mxPoint x="-9" y="6" as="offset" />
          </mxGeometry>
        </mxCell>
        <mxCell id="QBLKQdz6iIuvLNrxdn-J-6" value="" style="endArrow=classic;html=1;rounded=0;dashed=1;" parent="1" edge="1">
          <mxGeometry width="50" height="50" relative="1" as="geometry">
            <mxPoint x="1017" y="330.31" as="sourcePoint" />
            <mxPoint x="827" y="330" as="targetPoint" />
          </mxGeometry>
        </mxCell>
        <mxCell id="QBLKQdz6iIuvLNrxdn-J-7" value="Проверка валидации" style="edgeLabel;html=1;align=center;verticalAlign=middle;resizable=0;points=[];" parent="1" vertex="1" connectable="0">
          <mxGeometry x="930.0044827586207" y="310.0000000000002" as="geometry">
            <mxPoint x="-2" y="10" as="offset" />
          </mxGeometry>
        </mxCell>
        <mxCell id="QBLKQdz6iIuvLNrxdn-J-15" value="" style="endArrow=classic;html=1;rounded=0;" parent="1" edge="1">
          <mxGeometry width="50" height="50" relative="1" as="geometry">
            <mxPoint x="827" y="370" as="sourcePoint" />
            <mxPoint x="1027" y="370" as="targetPoint" />
          </mxGeometry>
        </mxCell>
        <mxCell id="QBLKQdz6iIuvLNrxdn-J-16" value="@booking.save" style="edgeLabel;html=1;align=center;verticalAlign=middle;resizable=0;points=[];" parent="1" vertex="1" connectable="0">
          <mxGeometry x="950.0044827586207" y="370.0000000000002" as="geometry">
            <mxPoint x="-20" y="-10" as="offset" />
          </mxGeometry>
        </mxCell>
        <mxCell id="QBLKQdz6iIuvLNrxdn-J-17" value="" style="endArrow=classic;html=1;rounded=0;" parent="1" edge="1">
          <mxGeometry width="50" height="50" relative="1" as="geometry">
            <mxPoint x="1017" y="429.48" as="sourcePoint" />
            <mxPoint x="827" y="429.17" as="targetPoint" />
          </mxGeometry>
        </mxCell>
        <mxCell id="QBLKQdz6iIuvLNrxdn-J-18" value="Возвращает результат сохранения" style="edgeLabel;html=1;align=center;verticalAlign=middle;resizable=0;points=[];" parent="1" vertex="1" connectable="0">
          <mxGeometry x="930.0044827586207" y="410.0000000000002" as="geometry">
            <mxPoint x="-2" y="10" as="offset" />
          </mxGeometry>
        </mxCell>
        <mxCell id="QBLKQdz6iIuvLNrxdn-J-19" value="" style="rounded=0;whiteSpace=wrap;html=1;" parent="1" vertex="1">
          <mxGeometry x="1040" y="360" width="10" height="70" as="geometry" />
        </mxCell>
        <mxCell id="QBLKQdz6iIuvLNrxdn-J-21" value="" style="endArrow=classic;html=1;rounded=0;" parent="1" edge="1">
          <mxGeometry width="50" height="50" relative="1" as="geometry">
            <mxPoint x="1055" y="380" as="sourcePoint" />
            <mxPoint x="1250" y="380" as="targetPoint" />
          </mxGeometry>
        </mxCell>
        <mxCell id="QBLKQdz6iIuvLNrxdn-J-22" value="INSERT INTO booking&amp;nbsp;..." style="edgeLabel;html=1;align=center;verticalAlign=middle;resizable=0;points=[];" parent="1" vertex="1" connectable="0">
          <mxGeometry x="1170.0044827586207" y="360.0000000000002" as="geometry">
            <mxPoint x="-10" y="4" as="offset" />
          </mxGeometry>
        </mxCell>
        <mxCell id="QBLKQdz6iIuvLNrxdn-J-23" value="" style="endArrow=classic;html=1;rounded=0;" parent="1" edge="1">
          <mxGeometry width="50" height="50" relative="1" as="geometry">
            <mxPoint x="1241" y="420" as="sourcePoint" />
            <mxPoint x="1061" y="420" as="targetPoint" />
          </mxGeometry>
        </mxCell>
        <mxCell id="QBLKQdz6iIuvLNrxdn-J-24" value="Успешно" style="edgeLabel;html=1;align=center;verticalAlign=middle;resizable=0;points=[];" parent="1" vertex="1" connectable="0">
          <mxGeometry x="1180.0044827586207" y="410.0000000000002" as="geometry">
            <mxPoint x="-19" y="-5" as="offset" />
          </mxGeometry>
        </mxCell>
        <mxCell id="j1bbp8KOwzvHQ2oXoYyj-1" value="" style="rounded=0;whiteSpace=wrap;html=1;" parent="1" vertex="1">
          <mxGeometry x="465" y="150" width="10" height="50" as="geometry" />
        </mxCell>
        <mxCell id="j1bbp8KOwzvHQ2oXoYyj-2" value="" style="endArrow=classic;html=1;rounded=0;" parent="1" edge="1">
          <mxGeometry width="50" height="50" relative="1" as="geometry">
            <mxPoint x="790" y="159.74" as="sourcePoint" />
            <mxPoint x="490" y="160" as="targetPoint" />
          </mxGeometry>
        </mxCell>
        <mxCell id="j1bbp8KOwzvHQ2oXoYyj-3" value="Рендеринг new.html" style="edgeLabel;html=1;align=center;verticalAlign=middle;resizable=0;points=[];" parent="1" vertex="1" connectable="0">
          <mxGeometry x="645.0044827586207" y="140.00000000000023" as="geometry">
            <mxPoint x="-2" y="10" as="offset" />
          </mxGeometry>
        </mxCell>
        <mxCell id="j1bbp8KOwzvHQ2oXoYyj-4" value="" style="endArrow=classic;html=1;rounded=0;" parent="1" edge="1">
          <mxGeometry width="50" height="50" relative="1" as="geometry">
            <mxPoint x="610" y="240" as="sourcePoint" />
            <mxPoint x="100" y="239.65" as="targetPoint" />
          </mxGeometry>
        </mxCell>
        <mxCell id="j1bbp8KOwzvHQ2oXoYyj-5" value="Отображение полей ввода" style="edgeLabel;html=1;align=center;verticalAlign=middle;resizable=0;points=[];" parent="1" vertex="1" connectable="0">
          <mxGeometry x="370.0044827586207" y="220.00000000000023" as="geometry">
            <mxPoint x="-2" y="10" as="offset" />
          </mxGeometry>
        </mxCell>
        <mxCell id="j1bbp8KOwzvHQ2oXoYyj-7" value="" style="endArrow=classic;html=1;rounded=0;" parent="1" edge="1">
          <mxGeometry width="50" height="50" relative="1" as="geometry">
            <mxPoint x="100" y="279.65999999999997" as="sourcePoint" />
            <mxPoint x="620" y="280" as="targetPoint" />
          </mxGeometry>
        </mxCell>
        <mxCell id="j1bbp8KOwzvHQ2oXoYyj-8" value="Ввод данных и добавление новой брони" style="edgeLabel;html=1;align=center;verticalAlign=middle;resizable=0;points=[];" parent="j1bbp8KOwzvHQ2oXoYyj-7" vertex="1" connectable="0">
          <mxGeometry x="0.3435" y="-1" relative="1" as="geometry">
            <mxPoint x="-55" y="-11" as="offset" />
          </mxGeometry>
        </mxCell>
        <mxCell id="j1bbp8KOwzvHQ2oXoYyj-9" value="" style="endArrow=classic;html=1;rounded=0;" parent="1" edge="1">
          <mxGeometry width="50" height="50" relative="1" as="geometry">
            <mxPoint x="660" y="289.31" as="sourcePoint" />
            <mxPoint x="780" y="289.31" as="targetPoint" />
          </mxGeometry>
        </mxCell>
        <mxCell id="j1bbp8KOwzvHQ2oXoYyj-10" value="POST /booking" style="edgeLabel;html=1;align=center;verticalAlign=middle;resizable=0;points=[];" parent="1" vertex="1" connectable="0">
          <mxGeometry x="740.0044827586207" y="280.0000000000002" as="geometry">
            <mxPoint x="-10" y="-2" as="offset" />
          </mxGeometry>
        </mxCell>
        <mxCell id="j1bbp8KOwzvHQ2oXoYyj-11" value="" style="rounded=0;whiteSpace=wrap;html=1;" parent="1" vertex="1">
          <mxGeometry x="800" y="220" width="10" height="240" as="geometry" />
        </mxCell>
        <mxCell id="j1bbp8KOwzvHQ2oXoYyj-14" value="" style="endArrow=none;dashed=1;html=1;rounded=0;entryX=0.5;entryY=1;entryDx=0;entryDy=0;" parent="1" target="j1bbp8KOwzvHQ2oXoYyj-13" edge="1">
          <mxGeometry width="50" height="50" relative="1" as="geometry">
            <mxPoint x="310" y="470" as="sourcePoint" />
            <mxPoint x="310" y="10" as="targetPoint" />
          </mxGeometry>
        </mxCell>
        <mxCell id="j1bbp8KOwzvHQ2oXoYyj-13" value="" style="rounded=0;whiteSpace=wrap;html=1;" parent="1" vertex="1">
          <mxGeometry x="305" y="430" width="10" height="30" as="geometry" />
        </mxCell>
        <mxCell id="vf-5eA9rg8xxymgtpLoh-1" value="Views:booking/_form.html" style="rounded=1;whiteSpace=wrap;html=1;" parent="1" vertex="1">
          <mxGeometry x="570" y="-30" width="150" height="40" as="geometry" />
        </mxCell>
        <mxCell id="vf-5eA9rg8xxymgtpLoh-2" value="" style="endArrow=none;dashed=1;html=1;rounded=0;entryX=0.5;entryY=1;entryDx=0;entryDy=0;" parent="1" edge="1">
          <mxGeometry width="50" height="50" relative="1" as="geometry">
            <mxPoint x="635" y="470" as="sourcePoint" />
            <mxPoint x="635" y="10" as="targetPoint" />
          </mxGeometry>
        </mxCell>
        <mxCell id="vf-5eA9rg8xxymgtpLoh-3" value="" style="rounded=0;whiteSpace=wrap;html=1;" parent="1" vertex="1">
          <mxGeometry x="635" y="180" width="10" height="120" as="geometry" />
        </mxCell>
        <mxCell id="vf-5eA9rg8xxymgtpLoh-6" value="" style="endArrow=classic;html=1;rounded=0;" parent="1" edge="1">
          <mxGeometry width="50" height="50" relative="1" as="geometry">
            <mxPoint x="490" y="199.31" as="sourcePoint" />
            <mxPoint x="610" y="199.31" as="targetPoint" />
          </mxGeometry>
        </mxCell>
        <mxCell id="vf-5eA9rg8xxymgtpLoh-7" value="Включение _form.html" style="edgeLabel;html=1;align=center;verticalAlign=middle;resizable=0;points=[];" parent="1" vertex="1" connectable="0">
          <mxGeometry x="570.0044827586207" y="190.00000000000023" as="geometry">
            <mxPoint x="-10" y="-2" as="offset" />
          </mxGeometry>
        </mxCell>
        <mxCell id="vf-5eA9rg8xxymgtpLoh-9" value="" style="endArrow=none;dashed=1;html=1;rounded=0;entryX=0.5;entryY=1;entryDx=0;entryDy=0;" parent="1" target="QBLKQdz6iIuvLNrxdn-J-8" edge="1">
          <mxGeometry width="50" height="50" relative="1" as="geometry">
            <mxPoint x="1045" y="480" as="sourcePoint" />
            <mxPoint x="1045" y="170" as="targetPoint" />
          </mxGeometry>
        </mxCell>
        <mxCell id="QBLKQdz6iIuvLNrxdn-J-8" value="" style="rounded=0;whiteSpace=wrap;html=1;" parent="1" vertex="1">
          <mxGeometry x="1040" y="270" width="10" height="80" as="geometry" />
        </mxCell>
        <mxCell id="vf-5eA9rg8xxymgtpLoh-10" value="" style="endArrow=none;dashed=1;html=1;rounded=0;entryX=0.5;entryY=1;entryDx=0;entryDy=0;" parent="1" target="QBLKQdz6iIuvLNrxdn-J-20" edge="1">
          <mxGeometry width="50" height="50" relative="1" as="geometry">
            <mxPoint x="1260" y="480" as="sourcePoint" />
            <mxPoint x="1259.57" y="10" as="targetPoint" />
          </mxGeometry>
        </mxCell>
        <mxCell id="QBLKQdz6iIuvLNrxdn-J-20" value="" style="rounded=0;whiteSpace=wrap;html=1;" parent="1" vertex="1">
          <mxGeometry x="1255" y="370" width="10" height="60" as="geometry" />
        </mxCell>
      </root>
    </mxGraphModel>
  </diagram>
</mxfile>
